<?xml version="1.0" encoding="utf-8"?>
<!-- Generator: Adobe Illustrator 26.2.1, SVG Export Plug-In . SVG Version: 6.00 Build 0)  -->
<svg version="1.1" id="Layer_1" xmlns="http://www.w3.org/2000/svg" xmlns:xlink="http://www.w3.org/1999/xlink" x="0px" y="0px"
	 viewBox="0 0 172 136.5" style="enable-background:new 0 0 172 136.5;" xml:space="preserve">
<style type="text/css">
	.st0{fill:#C9C9C9;}
</style>
<path class="st0" d="M20.4,27.9c0.2-2.1-0.6-4.2-2.2-5.6L2.2,2.9V0H52l38.5,84.5L124.4,0H172v2.9l-13.7,13.2
	c-1.2,0.9-1.8,2.4-1.5,3.9v96.7c-0.2,1.5,0.3,3,1.5,3.9l13.4,13.2v2.9h-67.4v-2.9l13.9-13.5c1.4-1.4,1.4-1.8,1.4-3.9V38.1
	l-38.6,98.1h-5.2l-45-98.1v65.7c-0.4,2.8,0.5,5.5,2.5,7.5l18.1,21.9v2.9H0v-2.9l18.1-21.9c1.9-2,2.8-4.8,2.3-7.5V27.9z"/>
</svg>
